<svg width="32" height="32" viewBox="0 0 32 32" fill="none" xmlns="http://www.w3.org/2000/svg">
<path d="M10.6666 7.66663C10.12 7.66663 9.66663 7.21329 9.66663 6.66663V2.66663C9.66663 2.11996 10.12 1.66663 10.6666 1.66663C11.2133 1.66663 11.6666 2.11996 11.6666 2.66663V6.66663C11.6666 7.21329 11.2133 7.66663 10.6666 7.66663Z" fill="#292D32"/>
<path d="M21.3334 7.66663C20.7867 7.66663 20.3334 7.21329 20.3334 6.66663V2.66663C20.3334 2.11996 20.7867 1.66663 21.3334 1.66663C21.88 1.66663 22.3334 2.11996 22.3334 2.66663V6.66663C22.3334 7.21329 21.88 7.66663 21.3334 7.66663Z" fill="#292D32"/>
<path d="M27.3333 13.12H4.66663C4.11996 13.12 3.66663 12.6667 3.66663 12.12C3.66663 11.5733 4.11996 11.12 4.66663 11.12H27.3333C27.88 11.12 28.3333 11.5733 28.3333 12.12C28.3333 12.6667 27.88 13.12 27.3333 13.12Z" fill="#292D32"/>
<path d="M21.3333 30.3333H10.6667C5.8 30.3333 3 27.5333 3 22.6666V11.3333C3 6.46663 5.8 3.66663 10.6667 3.66663H21.3333C26.2 3.66663 29 6.46663 29 11.3333V22.6666C29 27.5333 26.2 30.3333 21.3333 30.3333ZM10.6667 5.66663C6.85333 5.66663 5 7.51996 5 11.3333V22.6666C5 26.48 6.85333 28.3333 10.6667 28.3333H21.3333C25.1467 28.3333 27 26.48 27 22.6666V11.3333C27 7.51996 25.1467 5.66663 21.3333 5.66663H10.6667Z" fill="#292D32"/>
<path d="M11.3333 19.3333C11.16 19.3333 10.9867 19.2933 10.8267 19.2267C10.6667 19.16 10.52 19.0666 10.3867 18.9466C10.2667 18.8133 10.1733 18.6666 10.1066 18.5066C10.04 18.3466 10 18.1733 10 18C10 17.6533 10.1467 17.3067 10.3867 17.0533C10.52 16.9333 10.6667 16.84 10.8267 16.7733C11.0667 16.6666 11.3333 16.64 11.6 16.6933C11.68 16.7066 11.76 16.7333 11.84 16.7733C11.92 16.8 12 16.84 12.08 16.8933C12.1467 16.9467 12.2133 17 12.28 17.0533C12.3333 17.12 12.4 17.1866 12.44 17.2533C12.4933 17.3333 12.5334 17.4133 12.56 17.4933C12.6 17.5733 12.6267 17.6533 12.64 17.7333C12.6533 17.8266 12.6667 17.9066 12.6667 18C12.6667 18.3466 12.52 18.6933 12.28 18.9466C12.0267 19.1866 11.68 19.3333 11.3333 19.3333Z" fill="#292D32"/>
<path d="M16 19.3333C15.6533 19.3333 15.3066 19.1866 15.0533 18.9466C15 18.8799 14.9466 18.8133 14.8933 18.7466C14.84 18.6666 14.7999 18.5866 14.7733 18.5066C14.7333 18.4266 14.7066 18.3466 14.6933 18.2666C14.6799 18.1733 14.6666 18.0933 14.6666 18C14.6666 17.8266 14.7066 17.6533 14.7733 17.4933C14.8399 17.3333 14.9333 17.1866 15.0533 17.0533C15.4266 16.68 16.0266 16.5599 16.5066 16.7733C16.68 16.8399 16.8133 16.9333 16.9466 17.0533C17.1866 17.3066 17.3333 17.6533 17.3333 18C17.3333 18.0933 17.32 18.1733 17.3066 18.2666C17.2933 18.3466 17.2666 18.4266 17.2266 18.5066C17.2 18.5866 17.1599 18.6666 17.1066 18.7466C17.0533 18.8133 16.9999 18.8799 16.9466 18.9466C16.8133 19.0666 16.68 19.16 16.5066 19.2266C16.3466 19.2933 16.1733 19.3333 16 19.3333Z" fill="#292D32"/>
<path d="M11.3333 24C11.16 24 10.9867 23.9601 10.8267 23.8934C10.6667 23.8267 10.52 23.7334 10.3867 23.6134C10.2667 23.48 10.1733 23.3467 10.1066 23.1734C10.04 23.0134 10 22.84 10 22.6667C10 22.32 10.1467 21.9734 10.3867 21.72C10.52 21.6 10.6667 21.5067 10.8267 21.44C11.32 21.2267 11.9067 21.3467 12.28 21.72C12.3333 21.7867 12.4 21.8534 12.44 21.92C12.4933 22 12.5334 22.08 12.56 22.16C12.6 22.24 12.6267 22.32 12.64 22.4134C12.6533 22.4934 12.6667 22.5867 12.6667 22.6667C12.6667 23.0134 12.52 23.36 12.28 23.6134C12.0267 23.8534 11.68 24 11.3333 24Z" fill="#292D32"/>
</svg>
