<svg width="32" height="32" viewBox="0 0 32 32" fill="none" xmlns="http://www.w3.org/2000/svg">
<path d="M28 30.3334H4C3.45333 30.3334 3 29.88 3 29.3334C3 28.7867 3.45333 28.3334 4 28.3334H28C28.5467 28.3334 29 28.7867 29 29.3334C29 29.88 28.5467 30.3334 28 30.3334Z" fill="#CEBEB9"/>
<path d="M7.46667 11.1733H5.33333C4.6 11.1733 4 11.7733 4 12.5067V24C4 24.7333 4.6 25.3333 5.33333 25.3333H7.46667C8.2 25.3333 8.8 24.7333 8.8 24V12.5067C8.8 11.76 8.2 11.1733 7.46667 11.1733Z" fill="#CEBEB9"/>
<path d="M17.0666 6.92004H14.9333C14.2 6.92004 13.6 7.52004 13.6 8.25338V24C13.6 24.7334 14.2 25.3334 14.9333 25.3334H17.0666C17.8 25.3334 18.4 24.7334 18.4 24V8.25338C18.4 7.52004 17.8 6.92004 17.0666 6.92004Z" fill="#CEBEB9"/>
<path d="M26.6667 2.66663H24.5334C23.8001 2.66663 23.2001 3.26663 23.2001 3.99996V24C23.2001 24.7333 23.8001 25.3333 24.5334 25.3333H26.6667C27.4001 25.3333 28.0001 24.7333 28.0001 24V3.99996C28.0001 3.26663 27.4001 2.66663 26.6667 2.66663Z" fill="#CEBEB9"/>
</svg>
