<svg width="32" height="32" viewBox="0 0 32 32" fill="none" xmlns="http://www.w3.org/2000/svg">
<path d="M28 30.3334H4C3.45333 30.3334 3 29.88 3 29.3334C3 28.7867 3.45333 28.3334 4 28.3334H28C28.5467 28.3334 29 28.7867 29 29.3334C29 29.88 28.5467 30.3334 28 30.3334Z" fill="#292D32"/>
<path d="M7.46663 26.3333H5.33333C4.05333 26.3333 3 25.28 3 24V12.5067C3 11.2267 4.05333 10.1733 5.33333 10.1733H7.46663C8.74663 10.1733 9.79997 11.2267 9.79997 12.5067V24C9.79997 25.28 8.74663 26.3333 7.46663 26.3333ZM5.33333 12.16C5.14667 12.16 5 12.3067 5 12.4933V24C5 24.1867 5.14667 24.3333 5.33333 24.3333H7.46663C7.6533 24.3333 7.79997 24.1867 7.79997 24V12.5067C7.79997 12.32 7.6533 12.1733 7.46663 12.1733H5.33333V12.16Z" fill="#292D32"/>
<path d="M17.0669 26.3334H14.9336C13.6536 26.3334 12.6002 25.28 12.6002 24V8.25338C12.6002 6.97338 13.6536 5.92004 14.9336 5.92004H17.0669C18.3469 5.92004 19.4002 6.97338 19.4002 8.25338V24C19.4002 25.28 18.3469 26.3334 17.0669 26.3334ZM14.9336 7.92004C14.7469 7.92004 14.6002 8.06671 14.6002 8.25338V24C14.6002 24.1867 14.7469 24.3334 14.9336 24.3334H17.0669C17.2535 24.3334 17.4002 24.1867 17.4002 24V8.25338C17.4002 8.06671 17.2535 7.92004 17.0669 7.92004H14.9336Z" fill="#292D32"/>
<path d="M26.6665 26.3333H24.5332C23.2532 26.3333 22.1998 25.28 22.1998 24V3.99996C22.1998 2.71996 23.2532 1.66663 24.5332 1.66663H26.6665C27.9465 1.66663 28.9998 2.71996 28.9998 3.99996V24C28.9998 25.28 27.9465 26.3333 26.6665 26.3333ZM24.5332 3.66663C24.3465 3.66663 24.1998 3.81329 24.1998 3.99996V24C24.1998 24.1866 24.3465 24.3333 24.5332 24.3333H26.6665C26.8531 24.3333 26.9998 24.1866 26.9998 24V3.99996C26.9998 3.81329 26.8531 3.66663 26.6665 3.66663H24.5332Z" fill="#292D32"/>
</svg>
