<svg width="24" height="24" viewBox="0 0 24 24" fill="none" xmlns="http://www.w3.org/2000/svg">
<path d="M12.0705 21.9799C10.6605 21.9799 9.24052 21.4399 8.17052 20.3699L3.64052 15.8399C2.54052 14.7399 1.96052 13.2199 2.03052 11.6699L2.27052 6.66993C2.38052 4.27993 4.27052 2.38993 6.67052 2.26993L11.6705 2.02993C13.2205 1.96993 14.7405 2.53993 15.8405 3.63993L20.3705 8.16993C22.5205 10.3199 22.5205 13.8299 20.3705 15.9799L15.9805 20.3699C14.9005 21.4399 13.4905 21.9799 12.0705 21.9799ZM4.70052 14.7699L9.23052 19.2999C9.99051 20.0599 11.0005 20.4799 12.0705 20.4799C13.1405 20.4799 14.1505 20.0599 14.9105 19.2999L19.3005 14.9099C20.0605 14.1499 20.4805 13.1399 20.4805 12.0699C20.4805 10.9999 20.0605 9.98993 19.3005 9.22993L14.7705 4.69993C13.9705 3.89993 12.8605 3.46993 11.7405 3.52993L6.74052 3.76993C5.11052 3.83993 3.84052 5.10993 3.76052 6.72993L3.52052 11.7299C3.47052 12.8599 3.90052 13.9699 4.70052 14.7699Z" fill="#292D32"/>
<path d="M9.50049 12.75C7.71049 12.75 6.25049 11.29 6.25049 9.5C6.25049 7.71 7.71049 6.25 9.50049 6.25C11.2905 6.25 12.7505 7.71 12.7505 9.5C12.7505 11.29 11.2905 12.75 9.50049 12.75ZM9.50049 7.75C8.54049 7.75 7.75049 8.54 7.75049 9.5C7.75049 10.46 8.54049 11.25 9.50049 11.25C10.4605 11.25 11.2505 10.46 11.2505 9.5C11.2505 8.54 10.4605 7.75 9.50049 7.75Z" fill="#292D32"/>
</svg>
