<svg width="32" height="32" viewBox="0 0 32 32" fill="" xmlns="http://www.w3.org/2000/svg">
<path d="M16 25C15.4533 25 15 24.5467 15 24V20C15 19.4533 15.4533 19 16 19C16.5467 19 17 19.4533 17 20V24C17 24.5467 16.5467 25 16 25Z"/>
<path d="M23.4666 30.08H8.53328C6.10661 30.08 3.89328 28.2134 3.49328 25.8267L1.71995 15.2C1.42661 13.5467 2.23995 11.4267 3.55995 10.3734L12.7999 2.97338C14.5866 1.53338 17.3999 1.54671 19.1999 2.98671L28.4399 10.3734C29.7466 11.4267 30.5466 13.5467 30.2799 15.2L28.5066 25.8134C28.1066 28.1734 25.8399 30.08 23.4666 30.08ZM15.9866 3.90671C15.2799 3.90671 14.5733 4.12005 14.0533 4.53338L4.81328 11.9467C4.06661 12.5467 3.53328 13.9334 3.69328 14.88L5.46661 25.4934C5.70661 26.8934 7.10661 28.08 8.53328 28.08H23.4666C24.8933 28.08 26.2933 26.8934 26.5333 25.48L28.3066 14.8667C28.4533 13.9334 27.9199 12.52 27.1866 11.9334L17.9466 4.54671C17.4133 4.12005 16.6933 3.90671 15.9866 3.90671Z"/>
</svg>
