<svg width="23" height="28" viewBox="0 0 23 28" fill="none" xmlns="http://www.w3.org/2000/svg">
<path d="M5.08304 25.6559C4.70785 25.6559 4.39673 25.2868 4.39673 24.8417V3.12798C4.39673 2.68285 4.70785 2.31372 5.08304 2.31372C5.45822 2.31372 5.76934 2.68285 5.76934 3.12798V24.8417C5.76934 25.2868 5.45822 25.6559 5.08304 25.6559Z" fill="#EB0831"/>
<path d="M15.3319 19.1418H5.08304C4.70785 19.1418 4.39673 18.7726 4.39673 18.3275C4.39673 17.8824 4.70785 17.5132 5.08304 17.5132H15.3319C16.3293 17.5132 16.796 17.1984 16.8875 16.927C16.979 16.6556 16.8418 16.0476 16.128 15.2116L15.0299 13.9088C14.5815 13.4419 14.307 12.7362 14.2796 11.9545C14.2521 11.1294 14.5266 10.3152 15.0299 9.71804L16.128 8.41522C16.8052 7.61181 17.0156 6.9604 16.915 6.67813C16.8143 6.39585 16.2927 6.11357 15.3319 6.11357H5.08304C4.6987 6.11357 4.39673 5.74444 4.39673 5.29931C4.39673 4.85418 4.70785 4.48505 5.08304 4.48505H15.3319C17.3359 4.48505 17.9765 5.47302 18.1869 6.05929C18.3883 6.64556 18.5255 7.88323 17.098 9.5769L15.9999 10.8797C15.7711 11.1511 15.643 11.5311 15.6522 11.9111C15.6613 12.2368 15.7711 12.53 15.9633 12.7362L17.098 14.0716C18.4981 15.7327 18.3608 16.9704 18.1595 17.5675C17.949 18.1429 17.2993 19.1418 15.3319 19.1418Z" fill="#EB0831"/>
</svg>
