<svg width="25" height="25" viewBox="0 0 25 25" fill="none" xmlns="http://www.w3.org/2000/svg">
<path d="M15.0024 23.3718H10.4615V16.203H9.50285C8.91757 16.203 8.44331 15.7383 8.44331 15.1648V13.2861C8.44331 12.7126 8.91757 12.2478 9.50285 12.2478H10.4615V9.77585C10.4615 7.72905 12.1568 6.06787 14.2456 6.06787H16.9702C17.5555 6.06787 18.0297 6.53259 18.0297 7.10609V9.47923C18.0297 10.0527 17.5555 10.5175 16.9702 10.5175H15.0024V12.2478H16.8995C17.2225 12.2478 17.5151 12.3863 17.7169 12.6236C17.9187 12.8609 17.9995 13.1773 17.9389 13.4838L17.5555 15.3625C17.4545 15.8471 17.0206 16.1931 16.5161 16.1931H15.0024V23.3718ZM11.9751 21.8886H13.4888V14.7198H16.1528L16.3546 13.731H13.4989V10.0725C13.4989 9.49898 13.9732 9.03426 14.5584 9.03426H16.5262V7.55106H14.2456C12.9943 7.55106 11.9751 8.54975 11.9751 9.77585V13.731H9.95695V14.7198H11.9751V21.8886Z" fill="black"/>
<path d="M15.2547 23.3718H9.20012C3.72073 23.3718 1.37962 21.0778 1.37962 15.7086V9.77584C1.37962 4.40668 3.72073 2.11267 9.20012 2.11267H15.2547C20.7341 2.11267 23.0752 4.40668 23.0752 9.77584V15.7086C23.0752 21.0778 20.7341 23.3718 15.2547 23.3718ZM9.20012 3.59586C4.54819 3.59586 2.89327 5.21749 2.89327 9.77584V15.7086C2.89327 20.267 4.54819 21.8886 9.20012 21.8886H15.2547C19.9066 21.8886 21.5616 20.267 21.5616 15.7086V9.77584C21.5616 5.21749 19.9066 3.59586 15.2547 3.59586H9.20012Z" fill="black"/>
</svg>
