<svg width="27" height="29" viewBox="0 0 27 29" fill="none" xmlns="http://www.w3.org/2000/svg">
<path d="M14.2915 27.3135C7.76342 27.3135 2.45728 21.6047 2.45728 14.5813C2.45728 7.55796 7.76342 1.84924 14.2915 1.84924C20.8196 1.84924 26.1257 7.55796 26.1257 14.5813C26.1257 21.6047 20.8196 27.3135 14.2915 27.3135ZM14.2915 3.62582C8.67713 3.62582 4.10856 8.541 4.10856 14.5813C4.10856 20.6217 8.67713 25.5369 14.2915 25.5369C19.9059 25.5369 24.4745 20.6217 24.4745 14.5813C24.4745 8.541 19.9059 3.62582 14.2915 3.62582Z" fill="#292D32"/>
<path d="M11.1762 18.8215C10.967 18.8215 10.7578 18.7385 10.5927 18.5609C10.2735 18.2174 10.2735 17.6489 10.5927 17.3054L16.8236 10.6018C17.1428 10.2584 17.6712 10.2584 17.9905 10.6018C18.3097 10.9453 18.3097 11.5138 17.9905 11.8573L11.7596 18.5609C11.6055 18.7385 11.3853 18.8215 11.1762 18.8215Z" fill="#292D32"/>
<path d="M17.407 18.8215C17.1979 18.8215 16.9887 18.7385 16.8236 18.5609L10.5927 11.8573C10.2735 11.5138 10.2735 10.9453 10.5927 10.6018C10.912 10.2584 11.4404 10.2584 11.7596 10.6018L17.9905 17.3054C18.3097 17.6489 18.3097 18.2174 17.9905 18.5609C17.8253 18.7385 17.6162 18.8215 17.407 18.8215Z" fill="#292D32"/>
</svg>
