<svg width="32" height="32" viewBox="0 0 32 32" fill="none" xmlns="http://www.w3.org/2000/svg">
<path d="M26.7998 12.2936C24.3865 12.2936 23.3998 10.5869 24.5998 8.49357C25.2932 7.28024 24.8798 5.73357 23.6665 5.04024L21.3598 3.72024C20.3065 3.09357 18.9465 3.46691 18.3198 4.52024L18.1732 4.77357C16.9732 6.86691 14.9998 6.86691 13.7865 4.77357L13.6398 4.52024C13.0398 3.46691 11.6798 3.09357 10.6265 3.72024L8.31984 5.04024C7.1065 5.73357 6.69317 7.29357 7.3865 8.50691C8.59984 10.5869 7.61317 12.2936 5.19984 12.2936C3.81317 12.2936 2.6665 13.4269 2.6665 14.8269V17.1736C2.6665 18.5602 3.79984 19.7069 5.19984 19.7069C7.61317 19.7069 8.59984 21.4136 7.3865 23.5069C6.69317 24.7202 7.1065 26.2669 8.31984 26.9602L10.6265 28.2802C11.6798 28.9069 13.0398 28.5336 13.6665 27.4802L13.8132 27.2269C15.0132 25.1336 16.9865 25.1336 18.1998 27.2269L18.3465 27.4802C18.9732 28.5336 20.3332 28.9069 21.3865 28.2802L23.6932 26.9602C24.9065 26.2669 25.3198 24.7069 24.6265 23.5069C23.4132 21.4136 24.3998 19.7069 26.8132 19.7069C28.1998 19.7069 29.3465 18.5736 29.3465 17.1736V14.8269C29.3332 13.4402 28.1998 12.2936 26.7998 12.2936ZM15.9998 20.3336C13.6132 20.3336 11.6665 18.3869 11.6665 16.0002C11.6665 13.6136 13.6132 11.6669 15.9998 11.6669C18.3865 11.6669 20.3332 13.6136 20.3332 16.0002C20.3332 18.3869 18.3865 20.3336 15.9998 20.3336Z" fill="#292D32"/>
</svg>
