<svg width="8" height="13" viewBox="0 0 8 13" fill="none" xmlns="http://www.w3.org/2000/svg">
<path d="M0.761272 13C0.604074 13 0.446876 12.9475 0.322773 12.835C0.0828388 12.6176 0.0828388 12.2577 0.322773 12.0402L5.71714 7.15141C6.11428 6.79149 6.11428 6.20663 5.71714 5.84672L0.322773 0.957895C0.0828388 0.740447 0.0828388 0.380534 0.322773 0.163086C0.562706 -0.0543619 0.959837 -0.0543619 1.19977 0.163086L6.59414 5.05191C7.0161 5.43432 7.25603 5.95169 7.25603 6.49906C7.25603 7.04643 7.02437 7.56381 6.59414 7.94622L1.19977 12.835C1.07567 12.94 0.91847 13 0.761272 13Z" fill="#959595"/>
</svg>
