<svg width="24" height="24" viewBox="0 0 24 24" fill="none" xmlns="http://www.w3.org/2000/svg">
<path opacity="0.4" d="M4.1705 15.3L8.7005 19.83C10.5605 21.6901 13.5805 21.6901 15.4505 19.83L19.8405 15.44C21.7005 13.58 21.7005 10.56 19.8405 8.69005L15.3005 4.17005C14.3505 3.22005 13.0405 2.71005 11.7005 2.78005L6.7005 3.02005C4.7005 3.11005 3.1105 4.70005 3.0105 6.69005L2.7705 11.69C2.7105 13.04 3.2205 14.35 4.1705 15.3Z" fill="#292D32"/>
<path d="M9.50048 12.3801C11.0911 12.3801 12.3805 11.0907 12.3805 9.50012C12.3805 7.90954 11.0911 6.62012 9.50048 6.62012C7.9099 6.62012 6.62048 7.90954 6.62048 9.50012C6.62048 11.0907 7.9099 12.3801 9.50048 12.3801Z" fill="#292D32"/>
</svg>
