<svg width="22" height="22" viewBox="0 0 22 22" fill="none" xmlns="http://www.w3.org/2000/svg">
<path d="M16.4101 21.35C15.8801 21.35 15.2001 21.18 14.3501 20.68L11.3601 18.91C11.0501 18.73 10.4501 18.73 10.1501 18.91L7.15012 20.68C5.38012 21.73 4.34012 21.31 3.87012 20.97C3.41012 20.63 2.69012 19.76 3.16012 17.76L3.87012 14.69C3.95012 14.37 3.79012 13.82 3.55012 13.58L1.07012 11.1C-0.169882 9.86 -0.0698822 8.8 0.100118 8.28C0.270118 7.76 0.810118 6.84 2.53012 6.55L5.72012 6.02C6.02012 5.97 6.45012 5.65 6.58012 5.38L8.35012 1.85C9.15012 0.24 10.2001 0 10.7501 0C11.3001 0 12.3501 0.24 13.1501 1.85L14.9101 5.37C15.0501 5.64 15.4801 5.96 15.7801 6.01L18.9701 6.54C20.7001 6.83 21.2401 7.75 21.4001 8.27C21.5601 8.79 21.6601 9.85 20.4301 11.09L17.9501 13.58C17.7101 13.82 17.5601 14.36 17.6301 14.69L18.3401 17.76C18.8001 19.76 18.0901 20.63 17.6301 20.97C17.3801 21.15 16.9801 21.35 16.4101 21.35ZM10.7501 17.27C11.2401 17.27 11.7301 17.39 12.1201 17.62L15.1101 19.39C15.9801 19.91 16.5301 19.91 16.7401 19.76C16.9501 19.61 17.1001 19.08 16.8801 18.1L16.1701 15.03C15.9801 14.2 16.2901 13.13 16.8901 12.52L19.3701 10.04C19.8601 9.55 20.0801 9.07 19.9801 8.74C19.8701 8.41 19.4101 8.14 18.7301 8.03L15.5401 7.5C14.7701 7.37 13.9301 6.75 13.5801 6.05L11.8201 2.53C11.5001 1.89 11.1001 1.51 10.7501 1.51C10.4001 1.51 10.0001 1.89 9.69012 2.53L7.92012 6.05C7.57012 6.75 6.73012 7.37 5.96012 7.5L2.78012 8.03C2.10012 8.14 1.64012 8.41 1.53012 8.74C1.42012 9.07 1.65012 9.56 2.14012 10.04L4.62012 12.52C5.22012 13.12 5.53012 14.2 5.34012 15.03L4.63012 18.1C4.40012 19.09 4.56012 19.61 4.77012 19.76C4.98012 19.91 5.52012 19.9 6.40012 19.39L9.39012 17.62C9.77012 17.39 10.2601 17.27 10.7501 17.27Z" fill="#292D32"/>
</svg>
