<svg width="27" height="24" viewBox="0 0 27 24" fill="none" xmlns="http://www.w3.org/2000/svg">
<path d="M8.72951 5.75C8.28213 5.75 7.91113 5.41 7.91113 5V2C7.91113 1.59 8.28213 1.25 8.72951 1.25C9.17689 1.25 9.54789 1.59 9.54789 2V5C9.54789 5.41 9.17689 5.75 8.72951 5.75Z" fill="#292D32"/>
<path d="M17.4588 5.75C17.0114 5.75 16.6404 5.41 16.6404 5V2C16.6404 1.59 17.0114 1.25 17.4588 1.25C17.9061 1.25 18.2771 1.59 18.2771 2V5C18.2771 5.41 17.9061 5.75 17.4588 5.75Z" fill="#292D32"/>
<path d="M22.3691 9.83997H3.81911C3.37173 9.83997 3.00073 9.49997 3.00073 9.08997C3.00073 8.67997 3.37173 8.33997 3.81911 8.33997H22.3691C22.8165 8.33997 23.1874 8.67997 23.1874 9.08997C23.1874 9.49997 22.8165 9.83997 22.3691 9.83997Z" fill="#292D32"/>
<path d="M17.4587 22.75H8.72933C4.74654 22.75 2.45508 20.65 2.45508 17V8.5C2.45508 4.85 4.74654 2.75 8.72933 2.75H17.4587C21.4415 2.75 23.733 4.85 23.733 8.5V17C23.733 20.65 21.4415 22.75 17.4587 22.75ZM8.72933 4.25C5.60857 4.25 4.09184 5.64 4.09184 8.5V17C4.09184 19.86 5.60857 21.25 8.72933 21.25H17.4587C20.5795 21.25 22.0962 19.86 22.0962 17V8.5C22.0962 5.64 20.5795 4.25 17.4587 4.25H8.72933Z" fill="#292D32"/>
<path d="M9.27501 14.5C9.13316 14.5 8.9913 14.47 8.86036 14.42C8.72942 14.37 8.6094 14.3 8.50029 14.21C8.40208 14.11 8.32568 14 8.27112 13.88C8.21656 13.76 8.18384 13.63 8.18384 13.5C8.18384 13.24 8.30388 12.98 8.50029 12.79C8.6094 12.7 8.72942 12.63 8.86036 12.58C9.05677 12.5 9.27502 12.48 9.49326 12.52C9.55873 12.53 9.62419 12.55 9.68966 12.58C9.75513 12.6 9.8206 12.63 9.88607 12.67C9.94062 12.71 9.99518 12.75 10.0497 12.79C10.0934 12.84 10.1479 12.89 10.1807 12.94C10.2243 13 10.2571 13.06 10.2789 13.12C10.3116 13.18 10.3335 13.24 10.3444 13.3C10.3553 13.37 10.3662 13.43 10.3662 13.5C10.3662 13.76 10.2461 14.02 10.0497 14.21C9.84241 14.39 9.55872 14.5 9.27501 14.5Z" fill="#292D32"/>
<path d="M13.0941 14.5C12.8104 14.5 12.5267 14.39 12.3194 14.21C12.2757 14.16 12.2321 14.11 12.1884 14.06C12.1448 14 12.112 13.94 12.0902 13.88C12.0575 13.82 12.0357 13.76 12.0247 13.7C12.0138 13.63 12.0029 13.57 12.0029 13.5C12.0029 13.37 12.0357 13.24 12.0902 13.12C12.1448 13 12.2212 12.89 12.3194 12.79C12.6249 12.51 13.1159 12.42 13.5088 12.58C13.6506 12.63 13.7597 12.7 13.8688 12.79C14.0652 12.98 14.1853 13.24 14.1853 13.5C14.1853 13.57 14.1744 13.63 14.1635 13.7C14.1526 13.76 14.1307 13.82 14.098 13.88C14.0762 13.94 14.0434 14 13.9998 14.06C13.9561 14.11 13.9125 14.16 13.8688 14.21C13.7597 14.3 13.6506 14.37 13.5088 14.42C13.3778 14.47 13.236 14.5 13.0941 14.5Z" fill="#292D32"/>
<path d="M9.27501 18C9.13316 18 8.9913 17.97 8.86036 17.92C8.72942 17.87 8.6094 17.8 8.50029 17.71C8.40208 17.61 8.32568 17.51 8.27112 17.38C8.21656 17.26 8.18384 17.13 8.18384 17C8.18384 16.74 8.30388 16.48 8.50029 16.29C8.6094 16.2 8.72942 16.13 8.86036 16.08C9.26409 15.92 9.74421 16.01 10.0497 16.29C10.0934 16.34 10.1479 16.39 10.1807 16.44C10.2243 16.5 10.2571 16.56 10.2789 16.62C10.3116 16.68 10.3335 16.74 10.3444 16.81C10.3553 16.87 10.3662 16.94 10.3662 17C10.3662 17.26 10.2461 17.52 10.0497 17.71C9.84241 17.89 9.55872 18 9.27501 18Z" fill="#292D32"/>
</svg>
