<svg width="27" height="24" viewBox="0 0 27 24" fill="none" xmlns="http://www.w3.org/2000/svg">
<path d="M16.5239 22.75H9.91443C3.93286 22.75 1.3772 20.43 1.3772 15V9C1.3772 3.57 3.93286 1.25 9.91443 1.25H16.5239C22.5055 1.25 25.0611 3.57 25.0611 9V15C25.0611 20.43 22.5055 22.75 16.5239 22.75ZM9.91443 2.75C4.83615 2.75 3.02956 4.39 3.02956 9V15C3.02956 19.61 4.83615 21.25 9.91443 21.25H16.5239C21.6022 21.25 23.4088 19.61 23.4088 15V9C23.4088 4.39 21.6022 2.75 16.5239 2.75H9.91443Z" fill="#292D32"/>
<path d="M17.1624 19.25C16.7107 19.25 16.3362 18.91 16.3362 18.5V14.6C16.3362 14.19 16.7107 13.85 17.1624 13.85C17.614 13.85 17.9885 14.19 17.9885 14.6V18.5C17.9885 18.91 17.614 19.25 17.1624 19.25Z" fill="#292D32"/>
<path d="M17.1624 8.2C16.7107 8.2 16.3362 7.86 16.3362 7.45V5.5C16.3362 5.09 16.7107 4.75 17.1624 4.75C17.614 4.75 17.9885 5.09 17.9885 5.5V7.45C17.9885 7.86 17.614 8.2 17.1624 8.2Z" fill="#292D32"/>
<path d="M17.1625 13.4C15.1245 13.4 13.4722 11.9 13.4722 10.05C13.4722 8.19995 15.1245 6.69995 17.1625 6.69995C19.2004 6.69995 20.8527 8.19995 20.8527 10.05C20.8527 11.9 19.1894 13.4 17.1625 13.4ZM17.1625 8.19995C16.0388 8.19995 15.1245 9.02995 15.1245 10.05C15.1245 11.07 16.0388 11.9 17.1625 11.9C18.2861 11.9 19.2004 11.07 19.2004 10.05C19.2004 9.02995 18.275 8.19995 17.1625 8.19995Z" fill="#292D32"/>
<path d="M9.2754 19.25C8.82376 19.25 8.44922 18.91 8.44922 18.5V16.55C8.44922 16.14 8.82376 15.8 9.2754 15.8C9.72705 15.8 10.1016 16.14 10.1016 16.55V18.5C10.1016 18.91 9.73807 19.25 9.2754 19.25Z" fill="#292D32"/>
<path d="M9.2754 10.15C8.82376 10.15 8.44922 9.81 8.44922 9.4V5.5C8.44922 5.09 8.82376 4.75 9.2754 4.75C9.72705 4.75 10.1016 5.09 10.1016 5.5V9.4C10.1016 9.81 9.73807 10.15 9.2754 10.15Z" fill="#292D32"/>
<path d="M9.275 17.3C7.23708 17.3 5.58472 15.8 5.58472 13.95C5.58472 12.1 7.23708 10.6 9.275 10.6C11.3129 10.6 12.9653 12.1 12.9653 13.95C12.9653 15.8 11.3129 17.3 9.275 17.3ZM9.275 12.1C8.15139 12.1 7.23708 12.93 7.23708 13.95C7.23708 14.97 8.15139 15.8 9.275 15.8C10.3986 15.8 11.3129 14.97 11.3129 13.95C11.3129 12.93 10.4096 12.1 9.275 12.1Z" fill="#292D32"/>
</svg>
