<svg width="27" height="24" viewBox="0 0 27 24" fill="none" xmlns="http://www.w3.org/2000/svg">
<path d="M16.5305 22.75H9.91826C3.93418 22.75 1.37744 20.43 1.37744 15V9C1.37744 3.57 3.93418 1.25 9.91826 1.25H16.5305C22.5146 1.25 25.0713 3.57 25.0713 9V15C25.0713 20.43 22.5146 22.75 16.5305 22.75ZM9.91826 2.75C4.83785 2.75 3.0305 4.39 3.0305 9V15C3.0305 19.61 4.83785 21.25 9.91826 21.25H16.5305C21.6109 21.25 23.4183 19.61 23.4183 15V9C23.4183 4.39 21.6109 2.75 16.5305 2.75H9.91826Z" fill="#292D32"/>
<path d="M7.71423 22.25C7.26239 22.25 6.8877 21.91 6.8877 21.5V2.5C6.8877 2.09 7.26239 1.75 7.71423 1.75C8.16606 1.75 8.54076 2.09 8.54076 2.5V21.5C8.54076 21.91 8.16606 22.25 7.71423 22.25Z" fill="#292D32"/>
<path d="M12.6404 17.55C11.2739 17.55 10.1719 16.5401 10.1719 15.3101C10.1719 14.0801 11.2849 13.0701 12.6404 13.0701C13.996 13.0701 15.109 14.0801 15.109 15.3101C15.109 16.5401 13.996 17.55 12.6404 17.55ZM12.6404 14.5601C12.1886 14.5601 11.8249 14.89 11.8249 15.3C11.8249 15.71 12.1886 16.04 12.6404 16.04C13.0923 16.04 13.456 15.71 13.456 15.3C13.456 14.89 13.0813 14.5601 12.6404 14.5601Z" fill="#292D32"/>
<path d="M14.2823 16.06C13.8305 16.06 13.4558 15.72 13.4558 15.31V9.3C13.4558 8.38 14.095 7.62002 15.0758 7.38002L18.3599 6.57002C19.3738 6.32002 20.013 6.56001 20.3656 6.81001C20.8725 7.16001 21.137 7.73001 21.137 8.50001V14.33C21.137 14.74 20.7623 15.08 20.3105 15.08C19.8587 15.08 19.484 14.74 19.484 14.33V8.50001C19.484 8.17001 19.4068 8.03002 19.3628 8.01002C19.3076 7.97002 19.1203 7.95004 18.8007 8.03004L15.5166 8.84004C15.2521 8.91004 15.1199 9.06002 15.1199 9.32002V15.33C15.1089 15.72 14.7342 16.06 14.2823 16.06Z" fill="#292D32"/>
<path d="M18.6575 16.55C17.291 16.55 16.189 15.5401 16.189 14.3101C16.189 13.0701 17.302 12.0701 18.6575 12.0701C20.013 12.0701 21.1261 13.0801 21.1261 14.3101C21.1371 15.5501 20.0241 16.55 18.6575 16.55ZM18.6575 13.5701C18.2057 13.5701 17.842 13.9001 17.842 14.3101C17.842 14.7201 18.2057 15.05 18.6575 15.05C19.1094 15.05 19.473 14.7201 19.473 14.3101C19.473 13.9001 19.1094 13.5701 18.6575 13.5701Z" fill="#292D32"/>
<path d="M14.2826 11.7899C13.919 11.7899 13.5883 11.5699 13.4892 11.2399C13.3679 10.8399 13.6324 10.4299 14.0732 10.3199L20.1014 8.82994C20.5422 8.71994 20.9941 8.95991 21.1153 9.35991C21.2365 9.75991 20.972 10.17 20.5312 10.28L14.503 11.7699C14.4259 11.7799 14.3487 11.7899 14.2826 11.7899Z" fill="#292D32"/>
</svg>
